<svg id="visual" viewBox="0 0 900 600" width="900" height="600" xmlns="http://www.w3.org/2000/svg" xmlns:xlink="http://www.w3.org/1999/xlink" version="1.1"><rect x="0" y="0" width="900" height="600" fill="#ffffff"></rect><path d="M0 501L60 501L60 512L120 512L120 505L180 505L180 522L240 522L240 545L300 545L300 541L360 541L360 495L420 495L420 504L480 504L480 522L540 522L540 536L600 536L600 519L660 519L660 538L720 538L720 515L780 515L780 501L840 501L840 528L900 528L900 514L900 601L900 601L840 601L840 601L780 601L780 601L720 601L720 601L660 601L660 601L600 601L600 601L540 601L540 601L480 601L480 601L420 601L420 601L360 601L360 601L300 601L300 601L240 601L240 601L180 601L180 601L120 601L120 601L60 601L60 601L0 601Z" fill="#fff547" stroke-linecap="square" stroke-linejoin="miter"></path></svg>