<svg id="visual" viewBox="0 0 900 600" width="900" height="600" xmlns="http://www.w3.org/2000/svg" xmlns:xlink="http://www.w3.org/1999/xlink" version="1.1"><rect x="0" y="0" width="900" height="600" fill="#ffffff"></rect><path d="M0 505L21.5 505.2C43 505.3 86 505.7 128.8 492.8C171.7 480 214.3 454 257.2 438C300 422 343 416 385.8 426.5C428.7 437 471.3 464 514.2 474.7C557 485.3 600 479.7 642.8 468.7C685.7 457.7 728.3 441.3 771.2 447.5C814 453.7 857 482.3 878.5 496.7L900 511L900 601L878.5 601C857 601 814 601 771.2 601C728.3 601 685.7 601 642.8 601C600 601 557 601 514.2 601C471.3 601 428.7 601 385.8 601C343 601 300 601 257.2 601C214.3 601 171.7 601 128.8 601C86 601 43 601 21.5 601L0 601Z" fill="#FFDE00" stroke-linecap="round" stroke-linejoin="miter"></path></svg>